<svg width="58" height="57" viewBox="0 0 58 57" fill="none" xmlns="http://www.w3.org/2000/svg">
<path d="M29 21.5625C36.2487 21.5625 42.125 19.3589 42.125 16.6406C42.125 13.9223 36.2487 11.7188 29 11.7188C21.7513 11.7188 15.875 13.9223 15.875 16.6406C15.875 19.3589 21.7513 21.5625 29 21.5625Z" stroke="#101010" stroke-width="1.6875"/>
<path opacity="0.4" d="M20.7969 26.2251C21.7838 26.5219 22.8876 26.7662 24.0781 26.947" stroke="#101010" stroke-width="1.6875" stroke-linecap="round"/>
<path d="M42.125 28.125C42.125 30.8434 36.2488 33.0469 29 33.0469C21.7513 33.0469 15.875 30.8434 15.875 28.125" stroke="#101010" stroke-width="1.6875"/>
<path opacity="0.4" d="M20.7969 37.7095C21.7838 38.0063 22.8876 38.2506 24.0781 38.4313" stroke="#101010" stroke-width="1.6875" stroke-linecap="round"/>
<path d="M42.125 16.6406V39.6094C42.125 42.3277 36.2488 44.5312 29 44.5312C21.7513 44.5312 15.875 42.3277 15.875 39.6094V16.6406" stroke="#101010" stroke-width="1.6875"/>
</svg>
