<svg width="28" height="36" viewBox="0 0 28 36" fill="none" xmlns="http://www.w3.org/2000/svg">
<path d="M14 11.5625C21.2487 11.5625 27.125 9.3589 27.125 6.64062C27.125 3.92235 21.2487 1.71875 14 1.71875C6.75126 1.71875 0.875 3.92235 0.875 6.64062C0.875 9.3589 6.75126 11.5625 14 11.5625Z" stroke="#101010" stroke-width="1.6875"/>
<path opacity="0.4" d="M5.79688 16.2251C6.78384 16.5219 7.88759 16.7662 9.07812 16.947" stroke="#101010" stroke-width="1.6875" stroke-linecap="round"/>
<path d="M27.125 18.125C27.125 20.8434 21.2488 23.0469 14 23.0469C6.75126 23.0469 0.875 20.8434 0.875 18.125" stroke="#101010" stroke-width="1.6875"/>
<path opacity="0.4" d="M5.79688 27.7095C6.78384 28.0063 7.88759 28.2506 9.07812 28.4313" stroke="#101010" stroke-width="1.6875" stroke-linecap="round"/>
<path d="M27.125 6.64062V29.6094C27.125 32.3277 21.2488 34.5312 14 34.5312C6.75126 34.5312 0.875 32.3277 0.875 29.6094V6.64062" stroke="#101010" stroke-width="1.6875"/>
</svg>
