<svg width="58" height="57" viewBox="0 0 58 57" fill="none" xmlns="http://www.w3.org/2000/svg">
<path d="M34.1078 12.6281C32.501 12.0989 30.7839 11.8125 29 11.8125C19.9909 11.8125 12.6875 19.1159 12.6875 28.125C12.6875 37.1341 19.9909 44.4375 29 44.4375C38.0091 44.4375 45.3125 37.1341 45.3125 28.125C45.3125 26.42 45.0508 24.7761 44.5657 23.2313" stroke="black" stroke-width="1.6875" stroke-linecap="round"/>
<path opacity="0.4" d="M37.1543 28.125C37.1543 32.6295 33.5026 36.2813 28.998 36.2813C24.4935 36.2813 20.8418 32.6295 20.8418 28.125C20.8418 23.6204 24.4935 19.9688 28.998 19.9688" stroke="black" stroke-width="1.6875" stroke-linecap="round" stroke-linejoin="round"/>
<path opacity="0.4" d="M41.2344 15.8906L29 28.125M41.2344 15.8906V11.8125M41.2344 15.8906H45.3125" stroke="black" stroke-width="1.6875" stroke-linecap="round" stroke-linejoin="round"/>
</svg>
