<svg width="58" height="57" viewBox="0 0 58 57" fill="none" xmlns="http://www.w3.org/2000/svg">
<path d="M37.5859 38.4274V34.9932" stroke="black" stroke-width="1.6875" stroke-linecap="round"/>
<path d="M29 38.4274V33.2761" stroke="black" stroke-width="1.6875" stroke-linecap="round"/>
<path d="M20.4141 38.4278V29.8423" stroke="black" stroke-width="1.6875" stroke-linecap="round"/>
<path opacity="0.4" d="M18.6973 19.5396C24.187 25.1516 31.1185 26.5476 37.8281 24.6769M35.3328 22.066L38.8933 23.8124C39.3156 24.0195 39.4296 24.499 39.148 24.8835L36.7731 28.1251" stroke="black" stroke-width="1.6875" stroke-linecap="round" stroke-linejoin="round"/>
<path d="M12.6875 28.125C12.6875 20.4352 12.6875 16.5903 15.0764 14.2014C17.4653 11.8125 21.3102 11.8125 29 11.8125C36.6897 11.8125 40.5347 11.8125 42.9237 14.2014C45.3125 16.5903 45.3125 20.4352 45.3125 28.125C45.3125 35.8147 45.3125 39.6597 42.9237 42.0487C40.5347 44.4375 36.6897 44.4375 29 44.4375C21.3102 44.4375 17.4653 44.4375 15.0764 42.0487C12.6875 39.6597 12.6875 35.8147 12.6875 28.125Z" stroke="black" stroke-width="1.6875" stroke-linejoin="round"/>
</svg>
