<svg width="58" height="57" viewBox="0 0 58 57" fill="none" xmlns="http://www.w3.org/2000/svg">
<path opacity="0.4" d="M12.6875 32.6677H13.6126C14.4236 32.6677 14.8291 32.6677 15.1817 32.4982C15.5343 32.3288 15.7876 32.0121 16.2943 31.3789L18.6974 28.3749L21.273 32.6677L23.8487 26.6578L28.1414 35.2434L34.1513 23.2236L37.5855 29.2335L40.1612 26.6578L42.6429 30.3805C43.0756 31.0296 43.292 31.3541 43.6081 31.5506C43.6709 31.5895 43.7362 31.6246 43.8035 31.6551C44.1423 31.8092 44.5324 31.8092 45.3125 31.8092" stroke="#101010" stroke-width="1.6875" stroke-linejoin="round"/>
<path d="M12.6875 28.375C12.6875 20.6852 12.6875 16.8403 15.0764 14.4514C17.4653 12.0625 21.3102 12.0625 29 12.0625C36.6897 12.0625 40.5347 12.0625 42.9237 14.4514C45.3125 16.8403 45.3125 20.6852 45.3125 28.375C45.3125 36.0647 45.3125 39.9097 42.9237 42.2987C40.5347 44.6875 36.6897 44.6875 29 44.6875C21.3102 44.6875 17.4653 44.6875 15.0764 42.2987C12.6875 39.9097 12.6875 36.0647 12.6875 28.375Z" stroke="#101010" stroke-width="1.6875" stroke-linejoin="round"/>
<path d="M34.1514 12.0625V17.2138M34.1514 44.6875V30.9507" stroke="#101010" stroke-width="1.6875" stroke-linecap="round" stroke-linejoin="round"/>
<path d="M34.1517 24.941C35.1 24.941 35.8688 24.1723 35.8688 23.2239C35.8688 22.2756 35.1 21.5068 34.1517 21.5068C33.2033 21.5068 32.4346 22.2756 32.4346 23.2239C32.4346 24.1723 33.2033 24.941 34.1517 24.941Z" stroke="#101010" stroke-width="1.6875" stroke-linejoin="round"/>
</svg>
