<svg width="62" height="63" viewBox="0 0 62 63" fill="none" xmlns="http://www.w3.org/2000/svg">
<path d="M13.0566 31.4374C13.0566 22.9786 13.0566 18.7493 15.1589 16.1215C17.2611 13.4937 20.6446 13.4937 27.4116 13.4937H34.5891C41.3561 13.4937 44.7397 13.4937 46.8419 16.1215C48.9441 18.7493 48.9441 22.9786 48.9441 31.4374C48.9441 39.8961 48.9441 44.1256 46.8419 46.7534C44.7397 49.3812 41.3561 49.3812 34.5891 49.3812H27.4116C20.6446 49.3812 17.2611 49.3812 15.1589 46.7534C13.0566 44.1256 13.0566 39.8961 13.0566 31.4374Z" stroke="#101010" stroke-width="2"/>
<path d="M13.0566 25.4561H27.4116C32.4869 25.4561 35.0245 25.4561 36.6012 27.2079C38.1779 28.9599 38.1779 31.7794 38.1779 37.4186V49.3811" stroke="#101010" stroke-width="2"/>
<path opacity="0.4" d="M27.4121 49.3811V25.4561" stroke="#101010" stroke-width="2"/>
</svg>
