<svg width="62" height="63" viewBox="0 0 62 63" fill="none" xmlns="http://www.w3.org/2000/svg">
<path d="M13.0566 24.2349C13.2532 20.2689 13.8412 17.7962 15.6002 16.0372C17.3592 14.2782 19.8319 13.6902 23.7979 13.4937M48.9441 24.2349C48.7475 20.2689 48.1595 17.7962 46.4007 16.0372C44.6416 14.2782 42.1688 13.6902 38.2028 13.4937M38.2028 49.3812C42.1688 49.1845 44.6416 48.5965 46.4007 46.8377C48.1595 45.0786 48.7475 42.6058 48.9441 38.6398M23.7979 49.3812C19.8319 49.1845 17.3592 48.5965 15.6002 46.8377C13.8412 45.0786 13.2532 42.6058 13.0566 38.6398" stroke="#101010" stroke-width="2" stroke-linecap="round" stroke-linejoin="round"/>
<path opacity="0.4" d="M45.4226 30.1492C45.882 30.7245 46.1117 31.012 46.1117 31.4377C46.1117 31.8635 45.882 32.1509 45.4226 32.7263C43.3584 35.3106 38.0869 40.8818 31.0012 40.8818C23.9155 40.8818 18.6439 35.3106 16.5797 32.7263C16.1203 32.1509 15.8906 31.8635 15.8906 31.4377C15.8906 31.012 16.1203 30.7245 16.5797 30.1492C18.6439 27.5649 23.9155 21.9937 31.0012 21.9937C38.0869 21.9937 43.3584 27.5649 45.4226 30.1492Z" stroke="#101010" stroke-width="2"/>
<path d="M34.7779 31.4373C34.7779 29.3509 33.0867 27.6597 31.0003 27.6597C28.9139 27.6597 27.2227 29.3509 27.2227 31.4373C27.2227 33.5237 28.9139 35.2149 31.0003 35.2149C33.0867 35.2149 34.7779 33.5237 34.7779 31.4373Z" stroke="#101010" stroke-width="2"/>
</svg>
